<svg xmlns="http://www.w3.org/2000/svg" xmlns:xlink="http://www.w3.org/1999/xlink" viewBox="0 0 1000 1000"><defs><mask id="h"><path fill="#fff" d="M80 60v800l280 80 280-80 280 80V140L640 60l-280 80z"/></mask><mask id="j"><path fill="#fff" d="M800 210v90l85 25v-90z"/></mask><mask id="k"><path fill="#fff" d="M80 60v800l280 80 280-80 280 80V140L640 60l-280 80z"/></mask><mask id="i"><path fill="#fff" d="M80 60v800l280 80 280-80 280 80V140L640 60l-280 80z"/></mask><mask id="n"><path fill="#fff" d="M80 60v800l280 80 280-80 280 80V140L640 60l-280 80z"/></mask><mask id="f"><path fill="#fff" d="M80 60v800l280 80 280-80 280 80V140L640 60l-280 80z"/></mask><mask id="l"><path fill="#fff" d="M80 60v800l280 80 280-80 280 80V140L640 60l-280 80z"/></mask><mask id="m"><path fill="#fff" d="M80 60v800l280 80 280-80 280 80V140L640 60l-280 80z"/></mask><mask id="o"><path fill="#fff" d="M80 60v800l280 80 280-80 280 80V140L640 60l-280 80z"/></mask><mask id="d"><path fill="#fff" d="M80 60v800l280 80 280-80 280 80V140L640 60l-280 80z"/></mask><mask id="v" maskUnits="userSpaceOnUse"><g fill="#fff"><path d="M732.528 170.839a1.4 1.4 0 0 0 .517 1.928l15.894 9.177c2.69 1.553 3.62 5.024 2.067 7.714l-.706 1.223a1.4 1.4 0 0 0 .517 1.928 1.4 1.4 0 0 0 1.928-.517l.706-1.222a8.46 8.46 0 0 0-3.1-11.571l-15.895-9.177a1.4 1.4 0 0 0-1.928.517M739.294 157.426a8.46 8.46 0 0 0 3.1 11.571l11.248 6.494a8.46 8.46 0 0 0 11.571-3.1 8.46 8.46 0 0 0-3.1-11.571l-11.248-6.494a8.46 8.46 0 0 0-11.571 3.1m2.445 1.412c1.553-2.69 5.024-3.62 7.714-2.067l11.248 6.494c2.69 1.553 3.62 5.024 2.067 7.714s-5.024 3.62-7.714 2.067l-11.248-6.494c-2.69-1.553-3.62-5.024-2.067-7.714M750.168 138.59c-3.007 5.21-.934 9.243 1.878 10.866 2.567 1.482 5.613.894 7.15.15l9.126-4.511c1.292-.656 3.009-.806 4.476.04 2.005 1.158 2.722 3.757.844 7.009-1.242 2.152-2.855 3.307-5 4.481a1.4 1.4 0 0 0-.485.502 1.4 1.4 0 0 0 .517 1.929c.39.226.832.252 1.26.076 2.112-.835 4.544-2.789 6.154-5.576 3.007-5.209.934-9.242-1.878-10.866-2.568-1.482-5.614-.893-7.15-.15l-9.127 4.512c-1.291.656-3.008.806-4.475-.041-2.005-1.158-2.722-3.756-.845-7.008 1.243-2.152 2.855-3.308 5-4.482.197-.115.373-.306.486-.502a1.4 1.4 0 0 0-.517-1.929 1.39 1.39 0 0 0-1.26-.075c-2.112.834-4.545 2.788-6.154 5.576M768.861 110.9l-.049-.028c-.586-.339-1.515-.256-1.924.454-.34.586-.205 1.088.045 1.558l6.768 12.221-13.968.25c-.532.019-1.034.153-1.372.74-.424.733-.018 1.555.618 1.922l21.934 12.663a1.4 1.4 0 0 0 1.928-.516 1.4 1.4 0 0 0-.516-1.929l-17.582-10.15 11.233-.2c.455.003 1.048-.177 1.344-.69a1.47 1.47 0 0 0-.05-1.496l-5.468-9.84 17.581 10.15a1.4 1.4 0 0 0 1.929-.517 1.4 1.4 0 0 0-.517-1.928z"/></g></mask><linearGradient id="s" x1="470" x2="570" y1="540" y2="600" gradientUnits="userSpaceOnUse"><stop stop-color="#ddc2b6"/><stop offset="1" stop-color="#c19886"/></linearGradient><linearGradient id="c" x2="0" y1="860" y2="140" gradientUnits="userSpaceOnUse"><stop stop-color="#ffe289"/><stop offset="1" stop-color="#fff4d1"/></linearGradient><linearGradient id="u" x1="215.46" x2="280.41" y1="753.18" y2="715.68" gradientUnits="userSpaceOnUse"><stop stop-color="#e6b636"/><stop offset=".5" stop-color="#f1cf09"/><stop offset=".563" stop-color="#f0d609"/><stop offset=".625" stop-color="#f0b10a"/><stop offset=".688" stop-color="#f0ce0b"/><stop offset=".75" stop-color="#f0aa0c"/><stop offset="1" stop-color="#ffd900"/></linearGradient><linearGradient id="a"><stop/><stop offset="1" stop-color="#3c3c3c" stop-opacity="0"/></linearGradient><linearGradient xlink:href="#a" id="r" x1="455" x2="495" y1="690" y2="670" gradientUnits="userSpaceOnUse"/><linearGradient id="e" x2="0" y1="860" y2="140" gradientUnits="userSpaceOnUse"><stop stop-color="#3172e1"/><stop offset="1" stop-color="#5191ff"/></linearGradient><linearGradient id="g" x2="0" y1="320" y2="120" gradientUnits="userSpaceOnUse"><stop stop-color="#009600"/><stop offset="1" stop-color="#15bc15"/></linearGradient><linearGradient xlink:href="#a" id="p" x1="716.07" x2="938.57" y1="454.99" y2="306.71" gradientTransform="matrix(.98704 .23824 -.9468 1.3017 203.99 -122.85)" gradientUnits="userSpaceOnUse"/><linearGradient id="t" x1="455" x2="480" y1="655" y2="670" gradientUnits="userSpaceOnUse"><stop stop-color="#969696"/><stop offset="1" stop-color="#3c3c3c"/></linearGradient><filter id="w" color-interpolation-filters="sRGB"><feGaussianBlur stdDeviation=".5"/></filter><filter id="q" color-interpolation-filters="sRGB"><feGaussianBlur stdDeviation="10"/></filter><filter id="b" width="1.066" height="1.618" x="-.033" y="-.309" color-interpolation-filters="sRGB"><feGaussianBlur stdDeviation="11.58"/></filter></defs><path d="m80 840 340 80 220-50 220 50-40-100H120z" filter="url(#b)"/><path fill="url(#c)" d="M80 60v800l280 80 280-80 280 80V140L640 60l-280 80z"/><path fill="url(#e)" stroke="#0044c1" d="m605 60-85 25c-38 35-60 65-60 125 0 65 26.398 78.74 35 110 16.336 59.37 22.63 101.19 42.16 150 26.875 67.19 4.215 173.2 32.844 240 16.332 38.11 25 45 70 65 10 10 25 30 30 40 13.945 27.889 5.352 50.35 25 70l235 65-10-60c-20-190-150.18-219.09-204.28-264.28-60.714-50.714-21.889-99.23-45.719-170.72-5.665-16.995-20-75-30-85-45-30-70-60-85-110-33.17-110.57 80-165 50-200zM260 805c-41.743 7.657-40 55-80 45-24.21-6.05-59.07 5.48-75 30l255 70 160-45c-21.936-46.1-135-130-160-85-35 15-63.39-21.716-100-15z" mask="url(#d)"/><path fill="url(#g)" stroke="#005000" d="M315 115c-20.311 2.121-27.14 31.06-27.14 48.571 0 15 7.799 31.04 4.286 45.714-12.143 50.714-34.27 74.28-50 82.14-11.523 5.762-27.28 4.857-39.29 7.857-12.712 3.178-22.05 16.09-35.714 17.857-22.14 2.857-35.433-2.143-57.14-2.143-10 0-39.712 16.15-40 15v-280z" mask="url(#f)"/><path fill="#ceeba8" stroke="#aadd6b" d="m495 385-10-40-55 45 10 40z"/><path fill="#5c8b9f" stroke="#002f42" d="m220 730 140-10 65-40v-95l-65 40-140 15z"/><path fill="#de8f8f" stroke="#420000" d="m415 505-15-74-40 29-60 15-25-125-105 25 40 212.5L360 550z"/><path fill="#ff2828" fill-opacity=".235" stroke="#b50000" d="M800 210v90l85 25v-90z"/><path fill="#40bfc0" stroke="#002828" d="m360 180 125-40v40l-30 10v13.283L360 235l-15-5v-55z"/><path fill="none" stroke="#000" stroke-dasharray="2 2" stroke-width="2" d="m155 635-5 110-60-15 5-110z"/><g fill="#efca00" stroke="#282400"><path d="m735 515 85 55 30-40-85-55zM775 460l85 55 30-40-85-55z"/><path d="m815 405 85 55 30-40-85-55z" mask="url(#h)"/></g><g stroke="#000"><path fill="none" stroke-dasharray="2 2" stroke-width="2" d="m145 580-25-150H70v150z" mask="url(#i)"/><path fill="#c0aeaf" d="m775 650 15-15-10-10-15 15z"/></g><g fill="none"><path stroke="#f50000" stroke-linecap="round" stroke-linejoin="round" d="m825 215-30 30zm25 0-55 55zm25 0-80 80zm25 0L795 320zm0 25-90 90zm0 25-65 65zm0 25-40 40z" mask="url(#j)"/><g stroke="#820082" mask="url(#k)"><path d="M55 355h80l160-40 25 130 40-10 130-105 10 40M886 128l-11 32 25 75v100l-70 20-45 65-60 25h-55"/></g><path stroke="#906b00" stroke-dasharray="8 8" d="m180 620 180-45 45-35-13-16"/><path stroke="red" stroke-dasharray="4 1" d="M461 188c2-15 4-29 12-44"/></g><path fill="#ff0101" stroke="#a00000" stroke-linecap="round" d="M460 163h3l2 2 2-2h3l-3 3 3 3h-3l-2-2-2 2h-3l3-3z"/><path d="M322 445a2 2 0 1 1-3.999.001A2 2 0 0 1 322 445M297 315a2 2 0 1 1-3.999.001A2 2 0 0 1 297 315M137 355a2 2 0 1 1-3.999.001A2 2 0 0 1 137 355M492 330a2 2 0 1 1-3.999.001A2 2 0 0 1 492 330M502 370a2 2 0 1 1-3.999.001A2 2 0 0 1 502 370M672 445a2 2 0 1 1-3.999.001A2 2 0 0 1 672 445M727 445a2 2 0 1 1-3.999.001A2 2 0 0 1 727 445M787 420a2 2 0 1 1-3.999.001A2 2 0 0 1 787 420M832 355a2 2 0 1 1-3.999.001A2 2 0 0 1 832 355M902 335a2 2 0 1 1-3.999.001A2 2 0 0 1 902 335M902 235a2 2 0 1 1-3.999.001A2 2 0 0 1 902 235M877 160a2 2 0 1 1-3.999.001A2 2 0 0 1 877 160"/><g stroke="#000" stroke-width="4"><path d="M402 431a2 2 0 1 1-3.999.001A2 2 0 0 1 402 431zM302 475a2 2 0 1 1-3.999.001A2 2 0 0 1 302 475zM277 350a2 2 0 1 1-3.999.001A2 2 0 0 1 277 350zM172 375a2 2 0 1 1-3.999.001A2 2 0 0 1 172 375zM212 585a2 2 0 1 1-3.999.001A2 2 0 0 1 212 585zM417 505a2 2 0 1 1-3.999.001A2 2 0 0 1 417 505zM222 640a2 2 0 1 1-3.999.001A2 2 0 0 1 222 640zM427 585a2 2 0 1 1-3.999.001A2 2 0 0 1 427 585zM427 680a2 2 0 1 1-3.999.001A2 2 0 0 1 427 680zM222 730a2 2 0 1 1-3.999.001A2 2 0 0 1 222 730zM347 175a2 2 0 1 1-3.999.001A2 2 0 0 1 347 175zM487 140a2 2 0 1 1-3.999.001A2 2 0 0 1 487 140zM487 180a2 2 0 1 1-3.999.001A2 2 0 0 1 487 180zM457 190a2 2 0 1 1-3.999.001A2 2 0 0 1 457 190z"/></g><path d="M457 203.28a2 2 0 1 1-3.999.001 2 2 0 0 1 3.999-.001"/><g stroke="#000"><g stroke-width="4"><path d="M457 203.28a2 2 0 1 1-3.999.001 2 2 0 0 1 3.999-.001zM347 229.97a2 2 0 1 1-3.999.001 2 2 0 0 1 3.999-.001zM887 325a2 2 0 1 1-3.999.001A2 2 0 0 1 887 325zM887 235a2 2 0 1 1-3.999.001A2 2 0 0 1 887 235zM802 300a2 2 0 1 1-3.999.001A2 2 0 0 1 802 300zM802 210a2 2 0 1 1-3.999.001A2 2 0 0 1 802 210z"/></g><g fill="#fff"><path d="M97 620a2 2 0 1 1-3.999.001A2 2 0 0 1 97 620zM157 635a2 2 0 1 1-3.999.001A2 2 0 0 1 157 635zM152 745a2 2 0 1 1-3.999.001A2 2 0 0 1 152 745zM92 730a2 2 0 1 1-3.999.001A2 2 0 0 1 92 730z"/></g></g><path d="M407 540a2 2 0 1 1-3.999.001A2 2 0 0 1 407 540"/><g stroke="#000"><g stroke-width="4"><path d="M767 475a2 2 0 1 1-3.999.001A2 2 0 0 1 767 475zM737 515a2 2 0 1 1-3.999.001A2 2 0 0 1 737 515zM852 530a2 2 0 1 1-3.999.001A2 2 0 0 1 852 530zM822 570a2 2 0 1 1-3.999.001A2 2 0 0 1 822 570zM807 420a2 2 0 1 1-3.999.001A2 2 0 0 1 807 420zM777 460a2 2 0 1 1-3.999.001A2 2 0 0 1 777 460zM892 475a2 2 0 1 1-3.999.001A2 2 0 0 1 892 475zM862 515a2 2 0 1 1-3.999.001A2 2 0 0 1 862 515zM847 365a2 2 0 1 1-3.999.001A2 2 0 0 1 847 365zM817 405a2 2 0 1 1-3.999.001A2 2 0 0 1 817 405zM902 460a2 2 0 1 1-3.999.001A2 2 0 0 1 902 460z"/></g><g fill="#fff"><path d="M147 580a2 2 0 1 1-3.999.001A2 2 0 0 1 147 580zM122 430a2 2 0 1 1-3.999.001A2 2 0 0 1 122 430z"/></g><g stroke-width="4"><path d="M782 625a2 2 0 1 1-3.999.001A2 2 0 0 1 782 625zM792 635a2 2 0 1 1-3.999.001A2 2 0 0 1 792 635zM777 650a2 2 0 1 1-3.999.001A2 2 0 0 1 777 650zM767 640a2 2 0 1 1-3.999.001A2 2 0 0 1 767 640z"/></g><g fill="#646464"><path d="m65 825 100-70 20-3 175-12 85-55 5 25-90 55-180 12-10 3-100 70z" mask="url(#l)"/><path d="m167 765 17-1 5-173-36-199-15 5 34 195z"/></g><g fill="none" stroke-dasharray="2 4" stroke-width="2"><path d="m455 685 100-15M460 705l100-15"/></g></g><g stroke="#fff" stroke-linecap="round" stroke-linejoin="round" stroke-width="8"><path d="M189 765.5c0 7.456-6.04 13.5-13.5 13.5-7.456 0-13.5-6.04-13.5-13.5 0-7.456 6.04-13.5 13.5-13.5 7.456 0 13.5 6.04 13.5 13.5M463.5 695.5c0 7.456-6.04 13.5-13.5 13.5-7.456 0-13.5-6.04-13.5-13.5 0-7.456 6.04-13.5 13.5-13.5 7.456 0 13.5 6.04 13.5 13.5M158.5 395.5c0 7.456-6.04 13.5-13.5 13.5-7.456 0-13.5-6.04-13.5-13.5 0-7.456 6.04-13.5 13.5-13.5 7.456 0 13.5 6.04 13.5 13.5M193.5 591.5c0 7.456-6.04 13.5-13.5 13.5-7.456 0-13.5-6.04-13.5-13.5 0-7.456 6.04-13.5 13.5-13.5 7.456 0 13.5 6.04 13.5 13.5"/></g><g mask="url(#m)"><g fill="none"><path stroke="#fff" stroke-width="8" d="m650 800 129.89-139.88"/><g stroke="#000"><path d="M653.1 802.89 783 663M776.78 657.23 646.89 797.11"/></g><path stroke="#565656" stroke-width="5" d="m35 780 50 10h295l50 10 40 30 50 10h50l60-20 20-20 130-140 55-55 35-20 40-10h50"/><path stroke="#c8c8c8" stroke-dasharray="12 12" stroke-width="3" d="m35 780 50 10h295l50 10 40 30 50 10h50l60-20 20-20 130-140 55-55 35-20 40-10h50"/></g><path stroke="#fff" stroke-width="2" d="M124.719 777.469a2.5 2.5 0 0 0-1.5 4.312L131.44 790l-8.219 8.219a2.52 2.52 0 0 0 3.563 3.563L135 793.56l8.219 8.219a2.52 2.52 0 0 0 3.563-3.562L138.56 790l8.219-8.219a2.5 2.5 0 0 0-1.844-4.312 2.5 2.5 0 0 0-1.719.75L135 786.44l-8.219-8.219a2.5 2.5 0 0 0-1.812-.75 3 3 0 0 0-.25 0z" color="#000"/></g><g fill="none" stroke="#000" stroke-linecap="round" mask="url(#n)"><path d="M90 835v34M105 850v23M120 854.24v23.542M135 858.57v23.542M150 863v23.542M180 871.34v23.542M195 875.62v23.542M210 879.96v23.542M225 884.2v23.542M255 892.96v23.542M270 896.96v23.542M285 901.52v23.542M300 905.66v23.542M330 914.37v23.542M345 918.54v23.542M360 922.96v23.542M375 918.57v23.542M405 909.96v23.542M420 905.66v23.542M435 901.43v23.542M450 897.01v23.542M480 888.59v23.542M495 884.3v23.542M510 879.96v23.542M525 875.64v23.542M555 867.23v23.542M570 862.96v23.542M585 858.48v23.542M600 854.2v23.542M630 845.71v23.542M645 844.37v23.542M660 848.48v23.542M675 852.96v23.542M705 861.34v23.542M720 865.71v23.542M735 869.96v23.542M750 874.29v23.542M780 882.96v23.542M795 887.15v23.542M810 891.52v23.542M825 895.69v23.542M855 904.37v23.542M870 908.48v23.542M885 912.96v23.542M900 917.14v23.542M165 856.13v34.375M240 877.68v34.375M315 899.09v34.375M390 903.48v34.375M465 882.13v34.375M540 860.71v34.375M615 839.13v34.375M690 846.34v34.375M765 867.73v34.375M840 889.13v34.375M915 910.62v34.375"/></g><path fill="#fff" fill-opacity=".314" d="M60 40v920h300V40zm580 0v920h300V40z" mask="url(#o)"/><path fill="url(#p)" d="M560 540 450 695l150-75 40-50 250-60-40-130-210 60z" filter="url(#q)"/><path fill="url(#r)" d="m450 695 180-80 70-40-125-80z"/><path fill="url(#s)" d="m460 525-10 170 140-100L880 85V60l-20-30-50-20-45 5-30 20z"/><path fill="url(#t)" d="m450 695 3-52 2 10 5-4 1 2 2-1 2 8 3-2 1 1 5-3 2 9 4-2 1 2 1 1v3l3-1v2l6-2z"/><path fill="#b25c28" d="M460 525 735 35l30-20-285 505-5 6-2-5-6 9 1-8-3 4-1-5z"/><path fill="#974613" d="m765 15 45-5-303.68 525-4.325-7-8 7-1-11-4 3 1-12-10 5z"/><path fill="#853909" d="m810 10 50 20-306.56 530-3.438 3 2-20-10 7-1-3-5 5-1-12-4 5-1-10-8 4-1-10-15 10v-4z"/><path fill="#642b06" d="m860 30 20 30-300.79 520-.212-6-5 4 1-11-8 7-1-5-5 3 1-9-4 2-1-8-4 3z"/><path fill="#4d2105" d="M880 60v25L590 595v-5l-4 1 2-7-6 3v-3l-4 3 1-7z"/><g fill="url(#u)" stroke="#000" stroke-opacity=".134" stroke-width=".5" transform="rotate(-60)"><path d="M218.31 719.805c-.79 0-1.411.62-1.411 1.411v18.353c0 3.106-2.542 5.647-5.647 5.647h-1.412c-.79 0-1.412.622-1.412 1.412s.621 1.412 1.412 1.412h1.412a8.46 8.46 0 0 0 8.47-8.47v-18.354c0-.79-.621-1.411-1.412-1.411zM233.31 718.958a8.46 8.46 0 0 0-8.471 8.47v12.988a8.46 8.46 0 0 0 8.47 8.471 8.46 8.46 0 0 0 8.47-8.47v-12.989a8.46 8.46 0 0 0-8.47-8.47zm0 2.823c3.105 0 5.646 2.541 5.646 5.647v12.988c0 3.106-2.54 5.648-5.647 5.648-3.106 0-5.647-2.542-5.647-5.648v-12.988c0-3.106 2.541-5.647 5.647-5.647zM255.058 718.958c-6.014 0-8.47 3.811-8.47 7.058 0 2.965 2.033 5.309 3.444 6.269l8.47 5.647c1.215.79 2.203 2.202 2.203 3.896 0 2.316-1.892 4.236-5.647 4.236-2.485 0-4.292-.82-6.381-2.09a1.4 1.4 0 0 0-.678-.17c-.79 0-1.411.622-1.411 1.412 0 .452.197.848.564 1.13 1.78 1.412 4.687 2.541 7.906 2.541 6.014 0 8.47-3.812 8.47-7.059 0-2.964-2.032-5.308-3.444-6.268l-8.47-5.647c-1.215-.79-2.203-2.202-2.203-3.897 0-2.315 1.892-4.235 5.647-4.235 2.485 0 4.292.819 6.381 2.09.198.113.452.169.678.169.79 0 1.412-.621 1.412-1.412 0-.452-.198-.847-.565-1.13-1.779-1.411-4.687-2.54-7.906-2.54zM288.386 721.301v-.056c0-.678-.537-1.44-1.356-1.44-.677 0-1.044.367-1.327.818l-7.2 11.972-7.2-11.972c-.282-.451-.649-.818-1.327-.818-.847 0-1.355.762-1.355 1.496v25.327c0 .79.621 1.412 1.412 1.412s1.412-.621 1.412-1.412v-20.301l5.788 9.628c.226.396.677.82 1.27.82.537 0 1.045-.34 1.271-.792l5.788-9.656v20.301c0 .79.621 1.412 1.412 1.412s1.412-.621 1.412-1.412z"/></g><path d="M720.22 98.54v110h90v-110zm47.563 13.219c.375-.063.72-.017 1.031.156l.031.031 21.938 12.656c.346.211.591.515.688.875s.038.707-.156 1.063c-.211.346-.484.56-.844.656-.36.097-.739.038-1.094-.156l-17.563-10.125 5.469 9.844c.141.218.206.449.219.719s-.055.511-.188.75c-.157.254-.343.457-.594.563s-.513.16-.75.156l-11.219.188 17.563 10.156c.346.211.591.484.688.844s.038.707-.156 1.063c-.211.346-.515.591-.875.688s-.707.038-1.063-.156l-21.938-12.656c-.33-.195-.547-.49-.688-.844a1.24 1.24 0 0 1 .063-1.094c.172-.286.388-.46.625-.563s.481-.154.75-.156l13.969-.25-6.75-12.219a2 2 0 0 1-.25-.75c-.03-.256.025-.52.188-.813.223-.35.532-.562.906-.625m-10.812 22.19c.21.013.424.074.625.188.346.211.56.484.656.844s.038.739-.156 1.094c-.12.208-.265.373-.469.5a16.7 16.7 0 0 0-2.844 1.875c-.823.684-1.538 1.539-2.156 2.594-.912 1.643-1.285 3.095-1.063 4.313s.876 2.124 1.906 2.719a4.33 4.33 0 0 0 2.281.563c.788-.024 1.528-.193 2.188-.531l9.125-4.531c.81-.411 1.871-.655 3.188-.75 1.316-.095 2.644.205 3.969.906 1.496.838 2.541 2.206 3.125 4.094s.163 4.151-1.25 6.781c-.829 1.4-1.809 2.584-2.906 3.531s-2.17 1.608-3.25 2.031c-.439.176-.88.164-1.281-.063-.346-.21-.56-.484-.656-.844s-.038-.739.156-1.094c.12-.208.265-.373.469-.5a16.6 16.6 0 0 0 2.844-1.875c.823-.683 1.538-1.539 2.156-2.594.912-1.642 1.285-3.064 1.063-4.281s-.876-2.124-1.906-2.719c-.748-.413-1.493-.618-2.281-.594s-1.528.193-2.188.531l-9.125 4.531c-.81.411-1.871.655-3.188.75-1.316.095-2.644-.205-3.969-.906-1.496-.837-2.509-2.206-3.094-4.094-.584-1.888-.194-4.151 1.219-6.781.829-1.4 1.809-2.584 2.906-3.531s2.17-1.608 3.25-2.031c.219-.088.446-.138.656-.125m-10.09 20.281c1.344.042 2.68.438 4 1.156l11.25 6.469c2.052 1.254 3.355 2.982 3.938 5.156s.306 4.326-.844 6.438c-1.254 2.052-2.982 3.355-5.156 3.938s-4.326.306-6.438-.844l-11.219-6.5c-2.052-1.254-3.386-2.951-3.969-5.125s-.306-4.326.844-6.438c1.254-2.052 2.982-3.386 5.156-3.969a8.4 8.4 0 0 1 2.438-.281m-.625 2.844c-.36.025-.73.09-1.094.188-1.454.39-2.574 1.265-3.406 2.625-.761 1.401-.952 2.827-.563 4.281.39 1.454 1.265 2.605 2.625 3.438l11.25 6.5c1.401.761 2.827.952 4.281.563 1.454-.39 2.605-1.265 3.438-2.625.761-1.401.921-2.858.531-4.313s-1.265-2.574-2.625-3.406l-11.25-6.5c-1.051-.571-2.107-.826-3.188-.75m-12.594 14.09c.269-.018.546.073.813.219l15.875 9.156c2.052 1.254 3.386 2.982 3.969 5.156s.275 4.295-.875 6.406l-.688 1.25c-.211.346-.515.56-.875.656s-.707.038-1.063-.156c-.346-.21-.56-.484-.656-.844s-.038-.739.156-1.094l.688-1.219c.761-1.401.952-2.827.563-4.281-.39-1.454-1.265-2.605-2.625-3.438l-15.906-9.156a1.43 1.43 0 0 1-.656-.875c-.096-.36-.038-.707.156-1.063.211-.346.484-.56.844-.656.09-.024.192-.056.281-.063" filter="url(#w)" mask="url(#v)"/></svg>